<svg width="177" height="40" viewBox="0 0 177 40" fill="none" xmlns="http://www.w3.org/2000/svg">
<path d="M18 2L33.5885 11V29L18 38L2.41156 29V11L18 2Z" stroke="#FFC107" stroke-width="3" stroke-linecap="round" stroke-linejoin="round"/>
<line x1="14" y1="23.5" x2="27" y2="23.5" stroke="#FFC107" stroke-width="3"/>
<line x1="9" y1="16.5" x2="12" y2="16.5" stroke="#FFC107" stroke-width="3"/>
<line x1="9" y1="23.5" x2="12" y2="23.5" stroke="#FFC107" stroke-width="3"/>
<line x1="14" y1="16.5" x2="27" y2="16.5" stroke="#FFC107" stroke-width="3"/>
<path d="M59.506 27.466C59.7313 27.466 59.9133 27.5353 60.052 27.674C60.208 27.8127 60.286 27.9947 60.286 28.22C60.286 28.4453 60.208 28.636 60.052 28.792C59.9133 28.9307 59.7313 29 59.506 29H50.224C49.9987 29 49.808 28.9307 49.652 28.792C49.5133 28.636 49.444 28.4453 49.444 28.22V11.58C49.444 11.3547 49.522 11.1727 49.678 11.034C49.834 10.878 50.0333 10.8 50.276 10.8C50.5013 10.8 50.692 10.878 50.848 11.034C51.004 11.1727 51.082 11.3547 51.082 11.58V27.466H59.506ZM64.3999 28.22C64.3999 28.4453 64.3219 28.636 64.1659 28.792C64.0272 28.9307 63.8452 29 63.6199 29C63.3946 29 63.2039 28.9307 63.0479 28.792C62.9092 28.636 62.8399 28.4453 62.8399 28.22V16.26C62.8399 16.0347 62.9092 15.8527 63.0479 15.714C63.2039 15.558 63.3946 15.48 63.6199 15.48C63.8452 15.48 64.0272 15.558 64.1659 15.714C64.3219 15.8527 64.3999 16.0347 64.3999 16.26V28.22ZM63.6199 13.738C63.2732 13.738 63.0046 13.66 62.8139 13.504C62.6232 13.3307 62.5279 13.088 62.5279 12.776V12.516C62.5279 12.204 62.6232 11.97 62.8139 11.814C63.0219 11.6407 63.2992 11.554 63.6459 11.554C64.3392 11.554 64.6859 11.8747 64.6859 12.516V12.776C64.6859 13.088 64.5906 13.3307 64.3999 13.504C64.2266 13.66 63.9666 13.738 63.6199 13.738ZM67.6984 26.894C67.5598 26.6687 67.4904 26.478 67.4904 26.322C67.4904 26.0967 67.6031 25.9233 67.8284 25.802C67.9324 25.698 68.0711 25.646 68.2444 25.646C68.4524 25.646 68.6431 25.7327 68.8164 25.906C69.8391 27.258 71.1998 27.934 72.8984 27.934C73.7304 27.934 74.4498 27.7433 75.0564 27.362C75.6804 26.9633 75.9924 26.3913 75.9924 25.646C75.9924 24.918 75.7064 24.372 75.1344 24.008C74.5624 23.644 73.7651 23.332 72.7424 23.072C71.3038 22.708 70.1771 22.24 69.3624 21.668C68.5478 21.0787 68.1404 20.2207 68.1404 19.094C68.1404 18.3833 68.3398 17.7507 68.7384 17.196C69.1371 16.624 69.6744 16.182 70.3504 15.87C71.0438 15.558 71.8238 15.402 72.6904 15.402C73.4358 15.402 74.1811 15.5493 74.9264 15.844C75.6891 16.1213 76.3391 16.572 76.8764 17.196C77.0324 17.3173 77.1104 17.4907 77.1104 17.716C77.1104 17.924 77.0238 18.106 76.8504 18.262C76.7291 18.366 76.5731 18.418 76.3824 18.418C76.2091 18.418 76.0531 18.3487 75.9144 18.21C75.4984 17.742 75.0044 17.3867 74.4324 17.144C73.8604 16.9013 73.2451 16.78 72.5864 16.78C71.7718 16.78 71.0698 16.9707 70.4804 17.352C69.9084 17.7333 69.6224 18.3053 69.6224 19.068C69.6571 19.7613 69.9691 20.29 70.5584 20.654C71.1651 21.018 72.0491 21.3473 73.2104 21.642C74.1118 21.8673 74.8571 22.1187 75.4464 22.396C76.0358 22.6733 76.5124 23.0633 76.8764 23.566C77.2578 24.0687 77.4484 24.736 77.4484 25.568C77.4484 26.6947 76.9978 27.596 76.0964 28.272C75.1951 28.9307 74.0771 29.26 72.7424 29.26C70.6278 29.26 68.9464 28.4713 67.6984 26.894ZM83.2399 17.222V25.932C83.2399 26.5907 83.3613 27.0413 83.6039 27.284C83.8466 27.5093 84.1673 27.622 84.5659 27.622C84.6699 27.622 84.7999 27.6047 84.9559 27.57C85.1119 27.518 85.2333 27.492 85.3199 27.492C85.4759 27.492 85.6059 27.5613 85.7099 27.7C85.8313 27.8213 85.8919 27.9687 85.8919 28.142C85.8919 28.3847 85.7533 28.5927 85.4759 28.766C85.1986 28.922 84.8693 29 84.4879 29C84.0199 29 83.6039 28.9567 83.2399 28.87C82.8759 28.7833 82.5206 28.5233 82.1739 28.09C81.8446 27.6567 81.6799 26.9633 81.6799 26.01V17.222H79.7819C79.5739 17.222 79.3919 17.1527 79.2359 17.014C79.0973 16.8753 79.0279 16.702 79.0279 16.494C79.0279 16.286 79.0973 16.1127 79.2359 15.974C79.3919 15.8353 79.5739 15.766 79.7819 15.766H81.6799V12.88C81.6799 12.6547 81.7493 12.4727 81.8879 12.334C82.0439 12.178 82.2346 12.1 82.4599 12.1C82.6853 12.1 82.8673 12.178 83.0059 12.334C83.1619 12.4727 83.2399 12.6547 83.2399 12.88V15.766H85.8399C86.0306 15.766 86.1953 15.844 86.3339 16C86.4899 16.156 86.5679 16.3293 86.5679 16.52C86.5679 16.728 86.4986 16.9013 86.3599 17.04C86.2213 17.1613 86.0479 17.222 85.8399 17.222H83.2399ZM90.9585 28.22C90.9585 28.4453 90.8805 28.636 90.7245 28.792C90.5858 28.9307 90.4038 29 90.1785 29C89.9532 29 89.7625 28.9307 89.6065 28.792C89.4678 28.636 89.3985 28.4453 89.3985 28.22V16.26C89.3985 16.0347 89.4678 15.8527 89.6065 15.714C89.7625 15.558 89.9532 15.48 90.1785 15.48C90.4038 15.48 90.5858 15.558 90.7245 15.714C90.8805 15.8527 90.9585 16.0347 90.9585 16.26V28.22ZM90.1785 13.738C89.8318 13.738 89.5632 13.66 89.3725 13.504C89.1818 13.3307 89.0865 13.088 89.0865 12.776V12.516C89.0865 12.204 89.1818 11.97 89.3725 11.814C89.5805 11.6407 89.8578 11.554 90.2045 11.554C90.8978 11.554 91.2445 11.8747 91.2445 12.516V12.776C91.2445 13.088 91.1492 13.3307 90.9585 13.504C90.7852 13.66 90.5252 13.738 90.1785 13.738ZM101.277 15.402C102.889 15.402 104.068 15.8787 104.813 16.832C105.576 17.768 105.957 19.016 105.957 20.576V28.22C105.957 28.4453 105.879 28.636 105.723 28.792C105.567 28.9307 105.385 29 105.177 29C104.952 29 104.761 28.9307 104.605 28.792C104.466 28.636 104.397 28.4453 104.397 28.22V20.654C104.397 19.5273 104.111 18.6173 103.539 17.924C102.984 17.2133 102.118 16.858 100.939 16.858C100.194 16.858 99.483 17.0313 98.807 17.378C98.1484 17.7247 97.611 18.1927 97.195 18.782C96.779 19.354 96.571 19.978 96.571 20.654V28.22C96.571 28.4453 96.493 28.636 96.337 28.792C96.1984 28.9307 96.0164 29 95.791 29C95.5657 29 95.375 28.9307 95.219 28.792C95.0804 28.636 95.011 28.4453 95.011 28.22V16.572C95.011 16.3467 95.0804 16.1647 95.219 16.026C95.375 15.87 95.5657 15.792 95.791 15.792C96.0164 15.792 96.1984 15.87 96.337 16.026C96.493 16.1647 96.571 16.3467 96.571 16.572V18.002C97.039 17.2567 97.7064 16.6413 98.573 16.156C99.457 15.6533 100.358 15.402 101.277 15.402ZM121.274 15.714C121.5 15.714 121.682 15.792 121.82 15.948C121.976 16.0867 122.054 16.2773 122.054 16.52V27.778C122.054 29.13 121.768 30.2827 121.196 31.236C120.642 32.2067 119.87 32.9433 118.882 33.446C117.912 33.9487 116.794 34.2 115.528 34.2C114.922 34.2 114.28 34.122 113.604 33.966C112.946 33.81 112.374 33.6107 111.888 33.368C111.42 33.1253 111.152 32.874 111.082 32.614C110.961 32.4927 110.9 32.354 110.9 32.198C110.9 32.0247 110.978 31.886 111.134 31.782C111.204 31.73 111.29 31.704 111.394 31.704C111.498 31.704 111.698 31.7647 111.992 31.886L112.538 32.12C113.613 32.536 114.618 32.744 115.554 32.744C117.097 32.744 118.302 32.302 119.168 31.418C120.052 30.5513 120.494 29.3727 120.494 27.882V26.27C120.061 27.206 119.376 27.9427 118.44 28.48C117.504 29 116.525 29.26 115.502 29.26C114.306 29.26 113.223 28.9653 112.252 28.376C111.299 27.7693 110.545 26.9373 109.99 25.88C109.436 24.8227 109.158 23.6353 109.158 22.318C109.158 21.018 109.436 19.8393 109.99 18.782C110.545 17.7247 111.299 16.9013 112.252 16.312C113.223 15.7053 114.298 15.402 115.476 15.402C116.568 15.402 117.565 15.6793 118.466 16.234C119.385 16.7713 120.061 17.4213 120.494 18.184V16.52C120.494 16.2947 120.564 16.104 120.702 15.948C120.858 15.792 121.049 15.714 121.274 15.714ZM115.632 27.804C116.586 27.804 117.435 27.5787 118.18 27.128C118.943 26.66 119.532 26.01 119.948 25.178C120.382 24.3287 120.598 23.3753 120.598 22.318C120.598 21.2607 120.382 20.316 119.948 19.484C119.532 18.652 118.943 18.0107 118.18 17.56C117.435 17.092 116.586 16.858 115.632 16.858C114.696 16.858 113.847 17.1007 113.084 17.586C112.339 18.054 111.75 18.704 111.316 19.536C110.9 20.368 110.692 21.2953 110.692 22.318C110.692 23.358 110.9 24.294 111.316 25.126C111.75 25.958 112.339 26.6167 113.084 27.102C113.847 27.57 114.696 27.804 115.632 27.804ZM139.581 10.8C139.824 10.8 140.015 10.878 140.153 11.034C140.309 11.1727 140.387 11.3633 140.387 11.606V28.194C140.37 28.4367 140.283 28.636 140.127 28.792C139.971 28.9307 139.781 29 139.555 29C139.33 29 139.139 28.922 138.983 28.766C138.827 28.61 138.749 28.4193 138.749 28.194V20.446H128.193V28.194C128.176 28.4193 128.089 28.61 127.933 28.766C127.777 28.922 127.587 29 127.361 29C127.119 29 126.919 28.9307 126.763 28.792C126.625 28.636 126.555 28.4367 126.555 28.194V11.606C126.555 11.3633 126.633 11.1727 126.789 11.034C126.945 10.878 127.145 10.8 127.387 10.8C127.613 10.8 127.803 10.878 127.959 11.034C128.115 11.19 128.193 11.3807 128.193 11.606V18.938H138.749V11.606C138.749 11.3807 138.827 11.19 138.983 11.034C139.157 10.878 139.356 10.8 139.581 10.8ZM146.386 28.22C146.386 28.4453 146.308 28.636 146.152 28.792C146.014 28.9307 145.832 29 145.606 29C145.381 29 145.19 28.9307 145.034 28.792C144.896 28.636 144.826 28.4453 144.826 28.22V16.26C144.826 16.0347 144.896 15.8527 145.034 15.714C145.19 15.558 145.381 15.48 145.606 15.48C145.832 15.48 146.014 15.558 146.152 15.714C146.308 15.8527 146.386 16.0347 146.386 16.26V28.22ZM145.606 13.738C145.26 13.738 144.991 13.66 144.8 13.504C144.61 13.3307 144.514 13.088 144.514 12.776V12.516C144.514 12.204 144.61 11.97 144.8 11.814C145.008 11.6407 145.286 11.554 145.632 11.554C146.326 11.554 146.672 11.8747 146.672 12.516V12.776C146.672 13.088 146.577 13.3307 146.386 13.504C146.213 13.66 145.953 13.738 145.606 13.738ZM160.475 15.454C160.648 15.454 160.813 15.5147 160.969 15.636C161.125 15.7573 161.203 15.9133 161.203 16.104C161.203 16.26 161.168 16.4073 161.099 16.546L156.003 28.506C155.933 28.6447 155.829 28.766 155.691 28.87C155.569 28.9567 155.439 29 155.301 29C155.127 29.0173 154.971 28.9827 154.833 28.896C154.694 28.8093 154.59 28.6793 154.521 28.506L149.399 16.546C149.399 16.5113 149.381 16.4593 149.347 16.39C149.329 16.3207 149.321 16.2513 149.321 16.182C149.321 15.974 149.39 15.8007 149.529 15.662C149.667 15.506 149.867 15.428 150.127 15.428C150.283 15.428 150.421 15.48 150.543 15.584C150.681 15.6707 150.785 15.792 150.855 15.948L155.275 26.478L159.721 15.948C159.79 15.792 159.885 15.6707 160.007 15.584C160.145 15.48 160.301 15.4367 160.475 15.454ZM175.306 21.59C175.306 21.798 175.228 21.98 175.072 22.136C174.916 22.2747 174.734 22.344 174.526 22.344H164.698C164.698 23.384 164.906 24.32 165.322 25.152C165.755 25.9667 166.362 26.6167 167.142 27.102C167.939 27.57 168.875 27.804 169.95 27.804C170.782 27.804 171.527 27.6307 172.186 27.284C172.844 26.9373 173.373 26.4953 173.772 25.958C173.962 25.802 174.144 25.724 174.318 25.724C174.491 25.724 174.647 25.7933 174.786 25.932C174.924 26.0707 174.994 26.2267 174.994 26.4C174.994 26.5907 174.907 26.7727 174.734 26.946C174.179 27.622 173.477 28.1767 172.628 28.61C171.796 29.0433 170.912 29.26 169.976 29.26C168.641 29.26 167.462 28.974 166.44 28.402C165.417 27.83 164.62 27.0327 164.048 26.01C163.476 24.97 163.19 23.774 163.19 22.422C163.19 21.0007 163.467 19.7613 164.022 18.704C164.594 17.6293 165.348 16.8147 166.284 16.26C167.22 15.688 168.216 15.402 169.274 15.402C170.314 15.402 171.284 15.6447 172.186 16.13C173.104 16.6153 173.85 17.326 174.422 18.262C174.994 19.198 175.288 20.3073 175.306 21.59ZM169.274 16.91C168.268 16.91 167.332 17.2567 166.466 17.95C165.616 18.6433 165.07 19.64 164.828 20.94H173.694V20.732C173.607 19.952 173.347 19.276 172.914 18.704C172.48 18.1147 171.934 17.6727 171.276 17.378C170.634 17.066 169.967 16.91 169.274 16.91Z" fill="#333333"/>
</svg>
