<svg width="175" height="40" viewBox="0 0 175 40" fill="none" xmlns="http://www.w3.org/2000/svg">
<path d="M18 2L33.5885 11V29L18 38L2.41154 29V11L18 2Z" stroke="#FFB34B" stroke-width="3" stroke-linecap="round" stroke-linejoin="round"/>
<path d="M11 19L18 26L32 12" stroke="#FFB34B" stroke-width="3" stroke-linecap="round" stroke-linejoin="round"/>
<path d="M65.11 10C65.53 10 65.87 10.13 66.13 10.39C66.41 10.63 66.55 10.96 66.55 11.38C66.55 11.8 66.41 12.13 66.13 12.37C65.87 12.61 65.53 12.73 65.11 12.73H59.77V29.56C59.77 29.96 59.62 30.3 59.32 30.58C59.04 30.86 58.68 31 58.24 31C57.8 31 57.43 30.86 57.13 30.58C56.85 30.3 56.71 29.96 56.71 29.56V12.73H51.4C50.98 12.73 50.63 12.61 50.35 12.37C50.09 12.11 49.96 11.77 49.96 11.35C49.96 10.95 50.09 10.63 50.35 10.39C50.63 10.13 50.98 10 51.4 10H65.11ZM79.4073 15.07C79.8273 15.07 80.1673 15.21 80.4273 15.49C80.7073 15.75 80.8473 16.1 80.8473 16.54V29.56C80.8473 29.96 80.7073 30.3 80.4273 30.58C80.1673 30.86 79.8273 31 79.4073 31C78.9873 31 78.6473 30.87 78.3873 30.61C78.1273 30.33 77.9973 29.98 77.9973 29.56V28.78C77.4773 29.48 76.7673 30.08 75.8673 30.58C74.9673 31.06 73.9973 31.3 72.9573 31.3C71.5973 31.3 70.3573 30.95 69.2373 30.25C68.1373 29.55 67.2673 28.58 66.6273 27.34C66.0073 26.08 65.6973 24.67 65.6973 23.11C65.6973 21.55 66.0073 20.15 66.6273 18.91C67.2673 17.65 68.1373 16.67 69.2373 15.97C70.3373 15.27 71.5473 14.92 72.8673 14.92C73.9273 14.92 74.9073 15.14 75.8073 15.58C76.7273 16.02 77.4573 16.58 77.9973 17.26V16.54C77.9973 16.12 78.1273 15.77 78.3873 15.49C78.6473 15.21 78.9873 15.07 79.4073 15.07ZM73.2873 28.66C74.2273 28.66 75.0573 28.42 75.7773 27.94C76.5173 27.46 77.0873 26.8 77.4873 25.96C77.9073 25.12 78.1173 24.17 78.1173 23.11C78.1173 22.07 77.9073 21.13 77.4873 20.29C77.0873 19.45 76.5173 18.79 75.7773 18.31C75.0573 17.81 74.2273 17.56 73.2873 17.56C72.3473 17.56 71.5073 17.8 70.7673 18.28C70.0473 18.76 69.4773 19.42 69.0573 20.26C68.6573 21.1 68.4573 22.05 68.4573 23.11C68.4573 24.17 68.6573 25.12 69.0573 25.96C69.4773 26.8 70.0473 27.46 70.7673 27.94C71.5073 28.42 72.3473 28.66 73.2873 28.66ZM84.1851 28.54C84.0051 28.26 83.9151 27.99 83.9151 27.73C83.9151 27.33 84.1251 26.99 84.5451 26.71C84.7451 26.57 84.9751 26.5 85.2351 26.5C85.5951 26.5 85.9251 26.65 86.2251 26.95C86.8251 27.63 87.4651 28.14 88.1451 28.48C88.8451 28.82 89.6751 28.99 90.6351 28.99C91.3951 28.97 92.0651 28.8 92.6451 28.48C93.2251 28.14 93.5151 27.6 93.5151 26.86C93.5151 26.18 93.2151 25.66 92.6151 25.3C92.0351 24.94 91.1751 24.61 90.0351 24.31C88.9151 24.01 87.9851 23.7 87.2451 23.38C86.5051 23.04 85.8751 22.56 85.3551 21.94C84.8551 21.3 84.6051 20.47 84.6051 19.45C84.6051 18.55 84.8551 17.76 85.3551 17.08C85.8751 16.4 86.5551 15.87 87.3951 15.49C88.2551 15.11 89.1851 14.92 90.1851 14.92C91.1451 14.92 92.0951 15.1 93.0351 15.46C93.9951 15.82 94.7751 16.37 95.3751 17.11C95.6151 17.39 95.7351 17.68 95.7351 17.98C95.7351 18.3 95.5751 18.61 95.2551 18.91C95.0551 19.09 94.8051 19.18 94.5051 19.18C94.1451 19.18 93.8551 19.06 93.6351 18.82C93.2151 18.34 92.6951 17.97 92.0751 17.71C91.4751 17.45 90.8051 17.32 90.0651 17.32C89.3051 17.32 88.6551 17.48 88.1151 17.8C87.5951 18.1 87.3351 18.62 87.3351 19.36C87.3551 20.06 87.6551 20.58 88.2351 20.92C88.8351 21.26 89.7451 21.59 90.9651 21.91C92.0251 22.19 92.9051 22.49 93.6051 22.81C94.3051 23.13 94.8951 23.61 95.3751 24.25C95.8551 24.87 96.0951 25.69 96.0951 26.71C96.0951 27.65 95.8251 28.47 95.2851 29.17C94.7451 29.85 94.0351 30.38 93.1551 30.76C92.2951 31.12 91.3751 31.3 90.3951 31.3C89.1351 31.3 87.9651 31.08 86.8851 30.64C85.8251 30.2 84.9251 29.5 84.1851 28.54ZM112.222 28.51C112.522 28.83 112.672 29.18 112.672 29.56C112.672 29.96 112.512 30.3 112.192 30.58C111.892 30.84 111.572 30.97 111.232 30.97C110.792 30.97 110.442 30.81 110.182 30.49L104.272 24.22L102.472 25.84V29.56C102.472 29.96 102.332 30.3 102.052 30.58C101.792 30.86 101.462 31 101.062 31C100.642 31 100.292 30.86 100.012 30.58C99.752 30.3 99.622 29.96 99.622 29.56V10.24C99.622 9.84 99.752 9.5 100.012 9.22C100.292 8.94 100.642 8.8 101.062 8.8C101.462 8.8 101.792 8.94 102.052 9.22C102.332 9.5 102.472 9.84 102.472 10.24V22.42L109.822 15.67C110.162 15.37 110.512 15.22 110.872 15.22C111.212 15.22 111.522 15.37 111.802 15.67C112.082 15.95 112.222 16.25 112.222 16.57C112.222 16.97 112.032 17.33 111.652 17.65L106.462 22.27L112.222 28.51ZM131.503 10C131.943 10 132.303 10.14 132.583 10.42C132.863 10.68 133.003 11.02 133.003 11.44V29.53C132.983 29.95 132.833 30.3 132.553 30.58C132.273 30.86 131.913 31 131.473 31C131.073 31 130.723 30.86 130.423 30.58C130.143 30.3 130.003 29.95 130.003 29.53V21.76H119.353V29.53C119.353 29.95 119.203 30.3 118.903 30.58C118.603 30.86 118.253 31 117.853 31C117.413 31 117.053 30.86 116.773 30.58C116.513 30.3 116.383 29.95 116.383 29.53V11.44C116.383 11.04 116.523 10.7 116.803 10.42C117.083 10.14 117.443 10 117.883 10C118.283 10 118.623 10.14 118.903 10.42C119.203 10.7 119.353 11.04 119.353 11.44V19H130.003V11.44C130.003 11.04 130.153 10.7 130.453 10.42C130.753 10.14 131.103 10 131.503 10ZM140.285 29.56C140.285 29.96 140.145 30.3 139.865 30.58C139.605 30.86 139.265 31 138.845 31C138.445 31 138.105 30.86 137.825 30.58C137.565 30.3 137.435 29.96 137.435 29.56V16.57C137.435 16.17 137.565 15.83 137.825 15.55C138.105 15.27 138.445 15.13 138.845 15.13C139.265 15.13 139.605 15.27 139.865 15.55C140.145 15.83 140.285 16.17 140.285 16.57V29.56ZM138.845 13.15C138.265 13.15 137.845 13.05 137.585 12.85C137.345 12.63 137.225 12.29 137.225 11.83V11.35C137.225 10.87 137.355 10.53 137.615 10.33C137.895 10.13 138.315 10.03 138.875 10.03C139.435 10.03 139.835 10.14 140.075 10.36C140.335 10.56 140.465 10.89 140.465 11.35V11.83C140.465 12.31 140.335 12.65 140.075 12.85C139.815 13.05 139.405 13.15 138.845 13.15ZM156.382 15.13C156.762 15.13 157.082 15.26 157.342 15.52C157.602 15.76 157.732 16.05 157.732 16.39C157.732 16.57 157.662 16.82 157.522 17.14L151.822 30.1C151.702 30.36 151.532 30.57 151.312 30.73C151.092 30.89 150.852 30.98 150.592 31C150.272 31.04 149.972 30.98 149.692 30.82C149.432 30.66 149.232 30.42 149.092 30.1L143.392 17.14C143.292 16.84 143.242 16.59 143.242 16.39C143.242 16.07 143.372 15.78 143.632 15.52C143.892 15.26 144.232 15.13 144.652 15.13C144.952 15.13 145.222 15.21 145.462 15.37C145.702 15.51 145.892 15.73 146.032 16.03L150.562 26.56L155.092 16.03C155.372 15.43 155.802 15.13 156.382 15.13ZM174.471 22.54C174.451 22.9 174.301 23.21 174.021 23.47C173.741 23.71 173.411 23.83 173.031 23.83H162.471C162.611 25.29 163.161 26.46 164.121 27.34C165.101 28.22 166.291 28.66 167.691 28.66C168.651 28.66 169.431 28.52 170.031 28.24C170.631 27.96 171.161 27.6 171.621 27.16C171.921 26.98 172.211 26.89 172.491 26.89C172.831 26.89 173.111 27.01 173.331 27.25C173.571 27.49 173.691 27.77 173.691 28.09C173.691 28.51 173.491 28.89 173.091 29.23C172.511 29.81 171.741 30.3 170.781 30.7C169.821 31.1 168.841 31.3 167.841 31.3C166.221 31.3 164.791 30.96 163.551 30.28C162.331 29.6 161.381 28.65 160.701 27.43C160.041 26.21 159.711 24.83 159.711 23.29C159.711 21.61 160.051 20.14 160.731 18.88C161.431 17.6 162.341 16.62 163.461 15.94C164.601 15.26 165.821 14.92 167.121 14.92C168.401 14.92 169.601 15.25 170.721 15.91C171.841 16.57 172.741 17.48 173.421 18.64C174.101 19.8 174.451 21.1 174.471 22.54ZM167.121 17.56C166.001 17.56 165.031 17.88 164.211 18.52C163.391 19.14 162.851 20.11 162.591 21.43H171.441V21.19C171.341 20.13 170.861 19.26 170.001 18.58C169.161 17.9 168.201 17.56 167.121 17.56Z" fill="#3f4552"/>
</svg>
